<svg width="32" height="32" viewBox="0 0 32 32" fill="none" xmlns="http://www.w3.org/2000/svg">
<path d="M18.6667 0H13.3333C5.98133 0 0 5.98133 0 13.3333V24C0.00235276 26.121 0.845963 28.1545 2.34574 29.6543C3.84553 31.154 5.87899 31.9976 8 32H18.6667C26.0187 32 32 26.0187 32 18.6667V13.3333C32 5.98133 26.0187 0 18.6667 0ZM26.6667 18.6667C26.6643 20.7877 25.8207 22.8211 24.3209 24.3209C22.8211 25.8207 20.7877 26.6643 18.6667 26.6667H8C7.29276 26.6667 6.61448 26.3857 6.11438 25.8856C5.61429 25.3855 5.33333 24.7072 5.33333 24V13.3333C5.33569 11.2123 6.1793 9.17886 7.67908 7.67908C9.17886 6.1793 11.2123 5.33569 13.3333 5.33333H18.6667C20.7877 5.33569 22.8211 6.1793 24.3209 7.67908C25.8207 9.17886 26.6643 11.2123 26.6667 13.3333V18.6667Z" fill="url(#paint0_linear)"/>
<defs>
<linearGradient id="paint0_linear" x1="0" y1="32" x2="32" y2="0" gradientUnits="userSpaceOnUse">
<stop stop-color="#074EE8"/>
<stop offset="1" stop-color="#FF00D6"/>
</linearGradient>
</defs>
</svg>
